<svg width="181" height="35" viewBox="0 0 181 35" fill="none" xmlns="http://www.w3.org/2000/svg">
<g clip-path="url(#clip0_146_778)">
<path d="M74.9224 28.7169L67.4637 6.2831H62.194L54.6716 28.7169H58.98L60.7463 22.9955H68.7145L70.5155 28.7169H74.9224ZM67.6895 19.3647H61.777L64.6377 10.1398H64.7999L67.6895 19.3647Z" fill="#FF8F00"/>
<path d="M79.1843 28.7169H83.2032V12.6183H83.3306L85.0678 16.1855L89.6658 24.6691L94.2637 16.1855L96.001 12.6183H96.1284V28.7169H100.147V6.2831H95.5493L89.8627 17.2452H89.7353L83.985 6.2831H79.1959V28.7169H79.1843Z" fill="#FF8F00"/>
<path d="M111.103 28.7169V20.1696H116.952C121.098 20.1696 123.606 17.4074 123.606 13.2263C123.606 9.08008 121.098 6.2831 116.952 6.2831H106.859V28.7169H111.103ZM111.103 9.97767H116.564C118.203 9.97767 119.199 10.8463 119.199 12.4851V13.9618C119.199 15.6006 118.203 16.4982 116.564 16.4982H111.103V9.97767Z" fill="#1F1F1F"/>
<path d="M137.666 28.7169V25.3119H134.678V9.68813H137.666V6.2831H127.48V9.68813H130.439V25.3061H127.48V28.7111H137.666V28.7169Z" fill="#1F1F1F"/>
<path d="M147.227 20.0711H151.246L155.421 28.7169H160.147L155.549 19.5905C158.311 18.6582 159.724 16.3129 159.724 13.2263C159.724 8.98164 157.187 6.2831 153.105 6.2831H142.982V28.7169H147.227V20.0711ZM147.227 16.504V9.97767H152.688C154.327 9.97767 155.323 10.8463 155.323 12.4851V13.9618C155.323 15.6006 154.327 16.4982 152.688 16.4982H147.227V16.504Z" fill="#1F1F1F"/>
<path d="M180.073 28.7169V24.9586H169.534V19.2373H178.851V15.479H169.534V10.0472H180.073V6.28888H165.289V28.7227L180.073 28.7169Z" fill="#1F1F1F"/>
<path d="M50.7049 26.2326L47.5141 20.7023C47.1493 20.0769 46.3907 19.6368 45.6668 19.6368H39.3548L36.2335 14.234L39.3895 8.76738C39.7544 8.14196 39.7544 7.26175 39.3895 6.63634L36.1988 1.10606C35.834 0.480648 35.0754 0.0405426 34.3515 0.0405426H27.9642C27.2403 0.0405426 26.4817 0.480648 26.1169 1.10606L22.9609 6.57264H23.0361C23.76 6.57264 24.5186 7.01274 24.8834 7.63816L24.9182 7.70186L27.8947 2.54799C27.9758 2.40901 28.1726 2.29898 28.329 2.29898H33.9867C34.1488 2.29898 34.3399 2.40901 34.421 2.54799L37.2527 7.44706C37.3338 7.58604 37.3338 7.81188 37.2527 7.95086L34.421 12.8557C34.3399 12.9947 34.143 13.1047 33.9867 13.1047H28.0395L28.0742 13.1684C28.439 13.7938 28.439 14.6741 28.0742 15.2995L28.0395 15.3632H33.9867C34.1488 15.3632 34.3399 15.4732 34.421 15.6122L37.2527 20.5112C37.3338 20.6502 37.3338 20.8761 37.2527 21.0151L35.9845 23.2156C35.9034 23.3546 35.776 23.5804 35.695 23.7194L34.4268 25.9199C34.3457 26.0589 34.1488 26.1689 33.9925 26.1689H28.3348C28.1726 26.1689 27.9815 26.0589 27.9005 25.9199L26.6323 23.7194C26.5512 23.5804 26.4238 23.3546 26.3427 23.2156L24.9298 20.766L24.895 20.8297C24.5302 21.4552 23.7716 21.8953 23.0477 21.8953H16.6546C15.9308 21.8953 15.1722 21.4552 14.8073 20.8297L14.7726 20.766L11.6108 26.2326C11.246 26.858 11.246 27.7382 11.6108 28.3637L14.8015 33.8939C15.1664 34.5193 15.925 34.9595 16.6488 34.9595H23.0361C23.76 34.9595 24.5186 34.5193 24.8834 33.8939L28.0395 28.4274H34.2762L37.4322 33.8939C37.7971 34.5193 38.5557 34.9595 39.2795 34.9595H45.6668C46.3907 34.9595 47.1493 34.5193 47.5141 33.8939L50.7049 28.3637C51.0639 27.7382 51.0639 26.858 50.7049 26.2326ZM25.9374 27.5471L23.1056 32.452C23.0246 32.591 22.8277 32.701 22.6713 32.701H17.0137C16.8515 32.701 16.6604 32.591 16.5793 32.452L13.7476 27.5529C13.6665 27.414 13.6665 27.1881 13.7476 27.0491L16.7241 21.8953H22.9609L24.3738 24.3448C24.4549 24.4838 24.5823 24.7096 24.6634 24.8486L25.9316 27.0491C26.0184 27.1823 26.0184 27.4082 25.9374 27.5471ZM48.5681 27.5471L45.7363 32.4462C45.6553 32.5852 45.4584 32.6952 45.302 32.6952H39.6443C39.4822 32.6952 39.2911 32.5852 39.21 32.4462L36.3783 27.5471C36.2972 27.4082 36.2972 27.1823 36.3783 27.0433L37.6465 24.8428C37.7276 24.7038 37.855 24.478 37.936 24.339L39.2042 22.1385C39.2853 21.9995 39.4822 21.8895 39.6386 21.8895H45.2962C45.4584 21.8895 45.6495 21.9995 45.7305 22.1385L48.5623 27.0376C48.6433 27.1823 48.6433 27.4082 48.5681 27.5471Z" fill="#1F1F1F"/>
<path d="M28.0742 13.1684L28.0395 13.1047L26.6265 10.6552C26.5454 10.5162 26.418 10.2904 26.337 10.1514L24.9182 7.70186L24.8835 7.63816C24.5186 7.01274 23.76 6.57264 23.0362 6.57264H22.9609H16.7241L13.5681 1.10606C13.2033 0.480648 12.4447 0.0405426 11.7208 0.0405426H5.33927C4.61541 0.0405426 3.8568 0.480648 3.49198 1.10606L0.301207 6.63634C-0.0636183 7.26175 -0.0636183 8.14196 0.301207 8.76737L3.49198 14.2976C3.8568 14.9231 4.61541 15.3632 5.33927 15.3632H11.6513L14.7726 20.766L14.8073 20.8297C15.1722 21.4552 15.9308 21.8953 16.6546 21.8953H23.042C23.7658 21.8953 24.5244 21.4552 24.8892 20.8297L24.924 20.766L26.337 18.3165C26.418 18.1775 26.5454 17.9517 26.6265 17.8127L28.0395 15.3632L28.0742 15.2995C28.4391 14.6741 28.4391 13.7938 28.0742 13.1684ZM13.0643 10.6552L11.7961 12.8557C11.715 12.9947 11.5181 13.1047 11.3618 13.1047H5.6983C5.53616 13.1047 5.34506 12.9947 5.26398 12.8557L2.43225 7.95665C2.35118 7.81767 2.35118 7.59183 2.43225 7.45285L5.26398 2.54799C5.34506 2.40901 5.54195 2.29898 5.6983 2.29898H11.356C11.5181 2.29898 11.7092 2.40901 11.7903 2.54799L14.622 7.44706C14.7031 7.58604 14.7031 7.81188 14.622 7.95086L13.3538 10.1514C13.2728 10.2904 13.1454 10.5162 13.0643 10.6552ZM25.9374 14.483L24.6692 16.6835C24.5881 16.8225 24.4607 17.0483 24.3797 17.1873L24.2407 17.4247L23.1057 19.3878C23.0246 19.5268 22.8277 19.6368 22.6713 19.6368H17.0137C16.8515 19.6368 16.6604 19.5268 16.5793 19.3878L13.7476 14.4887C13.6665 14.3498 13.6665 14.1239 13.7476 13.9849L15.0158 11.7844C15.0969 11.6454 15.2243 11.4196 15.3054 11.2806L16.5736 9.08008C16.6546 8.9411 16.8457 8.83107 17.0079 8.83107H22.6656C22.8277 8.83107 23.0188 8.9411 23.0999 9.08008L24.3681 11.2806C24.4491 11.4196 24.5765 11.6454 24.6576 11.7844L25.034 12.4388L25.9258 13.9849C26.0185 14.1181 26.0185 14.344 25.9374 14.483Z" fill="#FF8F00"/>
</g>
<defs>
<clipPath id="clip0_146_778">
<rect width="180.096" height="35" fill="white"/>
</clipPath>
</defs>
</svg>
