<?xml version="1.0" encoding="utf-8"?>
<!-- Generator: Adobe Illustrator 24.1.0, SVG Export Plug-In . SVG Version: 6.00 Build 0)  -->
<svg xmlns:inkscape="http://www.inkscape.org/namespaces/inkscape"
     xmlns:sodipodi="http://sodipodi.sourceforge.net/DTD/sodipodi-0.dtd" version="1.1"
     id="svg8" inkscape:export-filename="\\infotecs-nt\dfsroot$\Users\Neyger.Sergey\Desktop\ampire.png" inkscape:export-xdpi="99.957565"
     inkscape:export-ydpi="99.957565"
     inkscape:version="0.92.1 r15371"
     sodipodi:docname="ampire_logo_TZ.svg"
     xmlns="http://www.w3.org/2000/svg" x="0px" y="0px"
     viewBox="0 0 3110 604.4"
     style="enable-background:new 0 0 3110 604.4;" xml:space="preserve">
<style type="text/css">
	.st0{fill:#FFFFFF;}
	.st1{fill:#FF8F00;}
	.st2{fill:#12100B;}
	.st3{fill:none;}
</style>
    <g id="path4517_3_">
	<path inkscape:connector-curvature="0" class="st1" d="M1293.8,495.9L1165,108.5h-91L944.1,495.9h74.4l30.5-98.8h137.6l31.1,98.8
		H1293.8z M1168.9,334.4h-102.1l49.4-159.3h2.8L1168.9,334.4z"/>
</g>
    <g id="path4519_3_">
	<path inkscape:connector-curvature="0" class="st1" d="M1367.4,495.9h69.4v-278h2.2l30,61.6l79.4,146.5l79.4-146.5l30-61.6h2.2v278
		h69.4V108.5h-79.4l-98.2,189.3h-2.2l-99.3-189.3h-82.7V495.9z"/>
</g>
    <g id="path4521_3_">
	<path inkscape:connector-curvature="0" class="st0" d="M1918.6,495.9V348.3h101c71.6,0,114.9-47.7,114.9-119.9
		c0-71.6-43.3-119.9-114.9-119.9h-174.3v387.4H1918.6z M1918.6,172.3h94.3c28.3,0,45.5,15,45.5,43.3v25.5
		c0,28.3-17.2,43.8-45.5,43.8h-94.3V172.3z"/>
</g>
    <g id="path4523_3_">
	<path inkscape:connector-curvature="0" class="st0" d="M2377.3,495.9v-58.8h-51.6V167.3h51.6v-58.8h-175.9v58.8h51.1v269.7h-51.1
		v58.8H2377.3z"/>
</g>
    <g id="path4525_3_">
	<path inkscape:connector-curvature="0" class="st0" d="M2542.4,346.6h69.4l72.1,149.3h81.6l-79.4-157.6
		c47.7-16.1,72.1-56.6,72.1-109.9c0-73.3-43.8-119.9-114.3-119.9h-174.8v387.4h73.3V346.6z M2542.4,285V172.3h94.3
		c28.3,0,45.5,15,45.5,43.3v25.5c0,28.3-17.2,43.8-45.5,43.8H2542.4z"/>
</g>
    <g id="path4527_3_">
	<path inkscape:connector-curvature="0" class="st0" d="M3109.6,495.9V431h-182v-98.8h160.9v-64.9h-160.9v-93.8h182v-64.9h-255.3
		v387.4L3109.6,495.9z"/>
</g>
    <path class="st0" d="M875.6,453l-55.1-95.5l0,0c-6.3-10.8-19.4-18.4-31.9-18.4h-109l-53.9-93.3l54.5-94.4c6.3-10.8,6.3-26,0-36.8
	l-55.1-95.5c-6.3-10.8-19.4-18.4-31.9-18.4H482.9c-12.5,0-25.6,7.6-31.9,18.4l-54.5,94.4h1.3c12.5,0,25.6,7.6,31.9,18.4l0.6,1.1
	l51.4-89c1.4-2.4,4.8-4.3,7.5-4.3h97.7c2.8,0,6.1,1.9,7.5,4.3l48.9,84.6c1.4,2.4,1.4,6.3,0,8.7L594.4,222c-1.4,2.4-4.8,4.3-7.5,4.3
	H484.2l0.6,1.1c6.3,10.8,6.3,26,0,36.8l-0.6,1.1h102.7c2.8,0,6.1,1.9,7.5,4.3l48.9,84.6c1.4,2.4,1.4,6.3,0,8.7l-21.9,38
	c-1.4,2.4-3.6,6.3-5,8.7l-21.9,38c-1.4,2.4-4.8,4.3-7.5,4.3h-97.7c-2.8,0-6.1-1.9-7.5-4.3l-21.9-38c-1.4-2.4-3.6-6.3-5-8.7
	l-24.4-42.3l-0.6,1.1c-6.3,10.8-19.4,18.4-31.9,18.4H287.6c-12.5,0-25.6-7.6-31.9-18.4l-0.6-1.1L200.5,453c-6.3,10.8-6.3,26,0,36.8
	l55.1,95.5c6.3,10.8,19.4,18.4,31.9,18.4h110.3c12.5,0,25.6-7.6,31.9-18.4l54.5-94.4h107.7l54.5,94.4c6.3,10.8,19.4,18.4,31.9,18.4
	h110.3c12.5,0,25.6-7.6,31.9-18.4l55.1-95.5C881.8,479,881.8,463.8,875.6,453z M447.9,475.7L399,560.4c-1.4,2.4-4.8,4.3-7.5,4.3
	h-97.7c-2.8,0-6.1-1.9-7.5-4.3l-48.9-84.6c-1.4-2.4-1.4-6.3,0-8.7l51.4-89h107.7l24.4,42.3c1.4,2.4,3.6,6.3,5,8.7l21.9,38
	C449.3,469.4,449.3,473.3,447.9,475.7z M838.7,475.7l-48.9,84.6c-1.4,2.4-4.8,4.3-7.5,4.3h-97.7c-2.8,0-6.1-1.9-7.5-4.3l-48.9-84.6
	c-1.4-2.4-1.4-6.3,0-8.7l21.9-38c1.4-2.4,3.6-6.3,5-8.7l21.9-38c1.4-2.4,4.8-4.3,7.5-4.3h97.7c2.8,0,6.1,1.9,7.5,4.3l48.9,84.6
	C840,469.4,840,473.3,838.7,475.7z"/>
    <path class="st1" d="M484.8,227.4l-0.6-1.1h0L459.8,184c-1.4-2.4-3.6-6.3-5-8.7L430.3,133l0,0l-0.6-1.1
	c-6.3-10.8-19.4-18.4-31.9-18.4h-1.3H288.8l-54.5-94.4c-6.3-10.8-19.4-18.4-31.9-18.4H92.2c-12.5,0-25.6,7.6-31.9,18.4L5.2,114.6
	c-6.3,10.8-6.3,26,0,36.8l55.1,95.5c6.3,10.8,19.4,18.4,31.9,18.4h109l53.9,93.3l0.6,1.1c6.3,10.8,19.4,18.4,31.9,18.4h110.3
	c12.5,0,25.6-7.6,31.9-18.4l0.6-1.1l0,0l24.4-42.3c1.4-2.4,3.6-6.3,5-8.7l24.4-42.3h0l0.6-1.1C491.1,253.4,491.1,238.2,484.8,227.4z
	 M225.6,184l-21.9,38c-1.4,2.4-4.8,4.3-7.5,4.3H98.4c-2.8,0-6.1-1.9-7.5-4.3l-48.9-84.6c-1.4-2.4-1.4-6.3,0-8.7L90.9,44
	c1.4-2.4,4.8-4.3,7.5-4.3h97.7c2.8,0,6.1,1.9,7.5,4.3l48.9,84.6c1.4,2.4,1.4,6.3,0,8.7l-21.9,38C229.2,177.7,227,181.6,225.6,184z
	 M447.9,250.1l-21.9,38c-1.4,2.4-3.6,6.3-5,8.7l-2.4,4.1L399,334.8c-1.4,2.4-4.8,4.3-7.5,4.3h-97.7c-2.8,0-6.1-1.9-7.5-4.3
	l-48.9-84.6c-1.4-2.4-1.4-6.3,0-8.7l21.9-38c1.4-2.4,3.6-6.3,5-8.7l21.9-38c1.4-2.4,4.7-4.3,7.5-4.3h97.7c2.8,0,6.1,1.9,7.5,4.3
	l21.9,38c1.4,2.4,3.6,6.3,5,8.7l6.5,11.3l15.4,26.7c0,0,0,0,0,0C449.3,243.8,449.3,247.7,447.9,250.1
	C447.9,250.1,447.9,250.1,447.9,250.1z"/>
</svg>
