<svg width="24" height="24" viewBox="0 0 24 24" fill="none" xmlns="http://www.w3.org/2000/svg">
<path d="M12 19.7778V22M4.22222 12H2M12 4.22222V2M19.7778 12H22M12 19.7778C13.0214 19.7778 14.0328 19.5766 14.9764 19.1857C15.9201 18.7949 16.7775 18.222 17.4997 17.4997C18.222 16.7775 18.7949 15.9201 19.1857 14.9764C19.5766 14.0328 19.7778 13.0214 19.7778 12C19.7778 10.9786 19.5766 9.96722 19.1857 9.02357C18.7949 8.07993 18.222 7.22251 17.4997 6.50028C16.7775 5.77805 15.9201 5.20514 14.9764 4.81427C14.0328 4.4234 13.0214 4.22222 12 4.22222C9.93721 4.22222 7.9589 5.04166 6.50028 6.50028C5.04166 7.9589 4.22222 9.93721 4.22222 12C4.22222 14.0628 5.04166 16.0411 6.50028 17.4997C7.9589 18.9583 9.93721 19.7778 12 19.7778V19.7778Z" stroke="#1F1F1F" stroke-width="1.5" stroke-linecap="round" stroke-linejoin="round"/>
</svg>
