{
    "asset" : {
        "generator" : "Khronos glTF Blender I/O v1.8.19",
        "version" : "2.0"
    },
    "extensionsUsed" : [
        "KHR_materials_transmission"
    ],
    "scene" : 0,
    "scenes" : [
        {
            "extras" : {
                "blenderkitUI" : {
                    "assetbar_on" : 0,
                    "turn_off" : 0
                },
                "blenderkit_models" : {},
                "asset_manager" : {
                    "cat" : 2,
                    "subcat" : 1
                },
                "uuid" : "e1b3df96-ae7c-4292-85af-e7e9e4ffcac3",
                "assets reported" : {},
                "pmc_sceneprops" : {},
                "kitops" : {},
                "scatter_properties" : {}
            },
            "name" : "Scene",
            "nodes" : [
                0
            ]
        }
    ],
    "nodes" : [
        {
            "extras" : {
                "kitops" : {}
            },
            "mesh" : 0,
            "name" : "Upright.001",
            "scale" : [
                1.1221261024475098,
                1.235783576965332,
                1.1221261024475098
            ],
            "translation" : [
                0,
                0.2903173565864563,
                0
            ]
        }
    ],
    "materials" : [
        {
            "doubleSided" : true,
            "extras" : {
                "pmc_matprops" : {}
            },
            "name" : "Black Plastic.002",
            "pbrMetallicRoughness" : {
                "baseColorFactor" : [
                    0.005243515595793724,
                    0.005243515595793724,
                    0.005243515595793724,
                    1
                ],
                "metallicFactor" : 0,
                "roughnessFactor" : 0.781818151473999
            }
        },
        {
            "doubleSided" : true,
            "extensions" : {
                "KHR_materials_transmission" : {
                    "transmissionFactor" : 0.17272727191448212
                }
            },
            "extras" : {
                "pmc_matprops" : {}
            },
            "name" : "Silver Plastic.002",
            "pbrMetallicRoughness" : {
                "baseColorFactor" : [
                    0.9042336940765381,
                    0.9042336940765381,
                    0.9042336940765381,
                    0.5249999761581421
                ],
                "roughnessFactor" : 0.35454562306404114
            }
        },
        {
            "doubleSided" : true,
            "extras" : {
                "pmc_matprops" : {}
            },
            "name" : "Display.002",
            "pbrMetallicRoughness" : {
                "baseColorTexture" : {
                    "index" : 0
                },
                "roughnessFactor" : 0.625
            }
        },
        {
            "doubleSided" : true,
            "extras" : {
                "pmc_matprops" : {}
            },
            "name" : "Black Plastic",
            "pbrMetallicRoughness" : {
                "baseColorFactor" : [
                    0,
                    0,
                    0,
                    1
                ],
                "metallicFactor" : 0,
                "roughnessFactor" : 0.5545454025268555
            }
        },
        {
            "doubleSided" : true,
            "emissiveFactor" : [
                0.08437623083591461,
                0.6724432706832886,
                0.05126946046948433
            ],
            "extras" : {
                "pmc_matprops" : {}
            },
            "name" : "Material",
            "pbrMetallicRoughness" : {
                "baseColorFactor" : [
                    0.07752007991075516,
                    0.7732653617858887,
                    0.018214132636785507,
                    1
                ],
                "metallicFactor" : 0,
                "roughnessFactor" : 0.4000000059604645
            }
        }
    ],
    "meshes" : [
        {
            "name" : "Cube.001",
            "primitives" : [
                {
                    "attributes" : {
                        "POSITION" : 0,
                        "NORMAL" : 1,
                        "TEXCOORD_0" : 2
                    },
                    "indices" : 3,
                    "material" : 0
                },
                {
                    "attributes" : {
                        "POSITION" : 4,
                        "NORMAL" : 5,
                        "TEXCOORD_0" : 6
                    },
                    "indices" : 7,
                    "material" : 1
                },
                {
                    "attributes" : {
                        "POSITION" : 8,
                        "NORMAL" : 9,
                        "TEXCOORD_0" : 10
                    },
                    "indices" : 11,
                    "material" : 2
                },
                {
                    "attributes" : {
                        "POSITION" : 12,
                        "NORMAL" : 13,
                        "TEXCOORD_0" : 14
                    },
                    "indices" : 15,
                    "material" : 3
                },
                {
                    "attributes" : {
                        "POSITION" : 16,
                        "NORMAL" : 17,
                        "TEXCOORD_0" : 18
                    },
                    "indices" : 19,
                    "material" : 4
                }
            ]
        }
    ],
    "textures" : [
        {
            "sampler" : 0,
            "source" : 0
        }
    ],
    "images" : [
        {
            "bufferView" : 12,
            "mimeType" : "image/png",
            "name" : "AM cover"
        }
    ],
    "accessors" : [
        {
            "bufferView" : 0,
            "componentType" : 5126,
            "count" : 5298,
            "max" : [
                0.24699951708316803,
                0.2024506777524948,
                0.0683249905705452
            ],
            "min" : [
                -0.24856650829315186,
                -0.20882317423820496,
                -0.1051444262266159
            ],
            "type" : "VEC3"
        },
        {
            "bufferView" : 1,
            "componentType" : 5126,
            "count" : 5298,
            "type" : "VEC3"
        },
        {
            "bufferView" : 2,
            "componentType" : 5126,
            "count" : 5298,
            "type" : "VEC2"
        },
        {
            "bufferView" : 3,
            "componentType" : 5123,
            "count" : 21861,
            "type" : "SCALAR"
        },
        {
            "bufferView" : 4,
            "componentType" : 5126,
            "count" : 2647,
            "max" : [
                0.24720148742198944,
                0.20241022109985352,
                0.03620310500264168
            ],
            "min" : [
                -0.24848859012126923,
                -0.20113001763820648,
                -0.09327606856822968
            ],
            "type" : "VEC3"
        },
        {
            "bufferView" : 5,
            "componentType" : 5126,
            "count" : 2647,
            "type" : "VEC3"
        },
        {
            "bufferView" : 6,
            "componentType" : 5126,
            "count" : 2647,
            "type" : "VEC2"
        },
        {
            "bufferView" : 7,
            "componentType" : 5123,
            "count" : 12171,
            "type" : "SCALAR"
        },
        {
            "bufferView" : 8,
            "componentType" : 5126,
            "count" : 16,
            "max" : [
                0.23169253766536713,
                0.18862587213516235,
                0.03268583118915558
            ],
            "min" : [
                -0.23334255814552307,
                -0.07665347307920456,
                0.03268583118915558
            ],
            "type" : "VEC3"
        },
        {
            "bufferView" : 9,
            "componentType" : 5126,
            "count" : 16,
            "type" : "VEC3"
        },
        {
            "bufferView" : 10,
            "componentType" : 5126,
            "count" : 16,
            "type" : "VEC2"
        },
        {
            "bufferView" : 11,
            "componentType" : 5123,
            "count" : 42,
            "type" : "SCALAR"
        },
        {
            "bufferView" : 13,
            "componentType" : 5126,
            "count" : 1543,
            "max" : [
                0.2462557852268219,
                -0.022058382630348206,
                0.0365145169198513
            ],
            "min" : [
                0.23525793850421906,
                -0.07540050148963928,
                0.034525442868471146
            ],
            "type" : "VEC3"
        },
        {
            "bufferView" : 14,
            "componentType" : 5126,
            "count" : 1543,
            "type" : "VEC3"
        },
        {
            "bufferView" : 15,
            "componentType" : 5126,
            "count" : 1543,
            "type" : "VEC2"
        },
        {
            "bufferView" : 16,
            "componentType" : 5123,
            "count" : 6468,
            "type" : "SCALAR"
        },
        {
            "bufferView" : 17,
            "componentType" : 5126,
            "count" : 188,
            "max" : [
                0.24243701994419098,
                -0.07157231867313385,
                0.0365145169198513
            ],
            "min" : [
                0.2391097992658615,
                -0.07475272566080093,
                0.0365145169198513
            ],
            "type" : "VEC3"
        },
        {
            "bufferView" : 18,
            "componentType" : 5126,
            "count" : 188,
            "type" : "VEC3"
        },
        {
            "bufferView" : 19,
            "componentType" : 5126,
            "count" : 188,
            "type" : "VEC2"
        },
        {
            "bufferView" : 20,
            "componentType" : 5123,
            "count" : 552,
            "type" : "SCALAR"
        }
    ],
    "bufferViews" : [
        {
            "buffer" : 0,
            "byteLength" : 63576,
            "byteOffset" : 0
        },
        {
            "buffer" : 0,
            "byteLength" : 63576,
            "byteOffset" : 63576
        },
        {
            "buffer" : 0,
            "byteLength" : 42384,
            "byteOffset" : 127152
        },
        {
            "buffer" : 0,
            "byteLength" : 43722,
            "byteOffset" : 169536
        },
        {
            "buffer" : 0,
            "byteLength" : 31764,
            "byteOffset" : 213260
        },
        {
            "buffer" : 0,
            "byteLength" : 31764,
            "byteOffset" : 245024
        },
        {
            "buffer" : 0,
            "byteLength" : 21176,
            "byteOffset" : 276788
        },
        {
            "buffer" : 0,
            "byteLength" : 24342,
            "byteOffset" : 297964
        },
        {
            "buffer" : 0,
            "byteLength" : 192,
            "byteOffset" : 322308
        },
        {
            "buffer" : 0,
            "byteLength" : 192,
            "byteOffset" : 322500
        },
        {
            "buffer" : 0,
            "byteLength" : 128,
            "byteOffset" : 322692
        },
        {
            "buffer" : 0,
            "byteLength" : 84,
            "byteOffset" : 322820
        },
        {
            "buffer" : 0,
            "byteLength" : 13318,
            "byteOffset" : 322904
        },
        {
            "buffer" : 0,
            "byteLength" : 18516,
            "byteOffset" : 336224
        },
        {
            "buffer" : 0,
            "byteLength" : 18516,
            "byteOffset" : 354740
        },
        {
            "buffer" : 0,
            "byteLength" : 12344,
            "byteOffset" : 373256
        },
        {
            "buffer" : 0,
            "byteLength" : 12936,
            "byteOffset" : 385600
        },
        {
            "buffer" : 0,
            "byteLength" : 2256,
            "byteOffset" : 398536
        },
        {
            "buffer" : 0,
            "byteLength" : 2256,
            "byteOffset" : 400792
        },
        {
            "buffer" : 0,
            "byteLength" : 1504,
            "byteOffset" : 403048
        },
        {
            "buffer" : 0,
            "byteLength" : 1104,
            "byteOffset" : 404552
        }
    ],
    "samplers" : [
        {
            "magFilter" : 9729,
            "minFilter" : 9987
        }
    ],
    "buffers" : [
        {
            "byteLength" : 405656,
            "uri" : "data:application/octet-stream;base64,"
        }
    ]
}
