{
    "asset" : {
        "generator" : "Khronos glTF Blender I/O v1.8.19",
        "version" : "2.0"
    },
    "scene" : 0,
    "scenes" : [
        {
            "name" : "Scene",
            "nodes" : [
                0
            ]
        }
    ],
    "nodes" : [
        {
            "mesh" : 0,
            "name" : "server01.011",
            "rotation" : [
                0,
                0.7076228260993958,
                0,
                0.7065903544425964
            ],
            "scale" : [
                0.10414952039718628,
                0.10414950549602509,
                0.10414952039718628
            ],
            "translation" : [
                0,
                0.2879817485809326,
                0
            ]
        }
    ],
    "materials" : [
        {
            "doubleSided" : true,
            "emissiveFactor" : [
                1,
                1,
                1
            ],
            "emissiveTexture" : {
                "index" : 0
            },
            "name" : "Material.003",
            "pbrMetallicRoughness" : {
                "baseColorTexture" : {
                    "index" : 1
                },
                "metallicFactor" : 0,
                "roughnessFactor" : 0
            }
        }
    ],
    "meshes" : [
        {
            "name" : "Cube.034",
            "primitives" : [
                {
                    "attributes" : {
                        "POSITION" : 0,
                        "NORMAL" : 1,
                        "TEXCOORD_0" : 2
                    },
                    "indices" : 3,
                    "material" : 0
                }
            ]
        }
    ],
    "textures" : [
        {
            "sampler" : 0,
            "source" : 0
        },
        {
            "sampler" : 0,
            "source" : 1
        }
    ],
    "images" : [
        {
            "mimeType" : "image/png",
            "name" : "server_emission_blender",
            "uri" : "server_emission_blender.png"
        },
        {
            "mimeType" : "image/png",
            "name" : "server_stylized_diff",
            "uri" : "server_stylized_diff.png"
        }
    ],
    "accessors" : [
        {
            "bufferView" : 0,
            "componentType" : 5126,
            "count" : 986,
            "max" : [
                1.5990926027297974,
                2.29075026512146,
                1.333108901977539
            ],
            "min" : [
                -1.689807653427124,
                -2.352551221847534,
                -1.3331060409545898
            ],
            "type" : "VEC3"
        },
        {
            "bufferView" : 1,
            "componentType" : 5126,
            "count" : 986,
            "type" : "VEC3"
        },
        {
            "bufferView" : 2,
            "componentType" : 5126,
            "count" : 986,
            "type" : "VEC2"
        },
        {
            "bufferView" : 3,
            "componentType" : 5123,
            "count" : 1572,
            "type" : "SCALAR"
        }
    ],
    "bufferViews" : [
        {
            "buffer" : 0,
            "byteLength" : 11832,
            "byteOffset" : 0
        },
        {
            "buffer" : 0,
            "byteLength" : 11832,
            "byteOffset" : 11832
        },
        {
            "buffer" : 0,
            "byteLength" : 7888,
            "byteOffset" : 23664
        },
        {
            "buffer" : 0,
            "byteLength" : 3144,
            "byteOffset" : 31552
        }
    ],
    "samplers" : [
        {
            "magFilter" : 9729,
            "minFilter" : 9987
        }
    ],
    "buffers" : [
        {
            "byteLength" : 34696,
            "uri" : "DMZ.bin"
        }
    ]
}
