{
    "asset" : {
        "generator" : "Khronos glTF Blender I/O v1.8.19",
        "version" : "2.0"
    },
    "scene" : 0,
    "scenes" : [
        {
            "name" : "Scene",
            "nodes" : [
                0
            ]
        }
    ],
    "nodes" : [
        {
            "mesh" : 0,
            "name" : "server.001",
            "rotation" : [
                0.5000860691070557,
                0.49991393089294434,
                -0.4999139904975891,
                0.5000860095024109
            ],
            "scale" : [
                -0.004205459263175726,
                -0.004205459263175726,
                -0.004205459263175726
            ],
            "translation" : [
                0,
                0.8972071409225464,
                0
            ]
        }
    ],
    "materials" : [
        {
            "doubleSided" : true,
            "name" : "Black Plastic.004",
            "pbrMetallicRoughness" : {
                "baseColorFactor" : [
                    0.005243515595793724,
                    0.005243515595793724,
                    0.005243515595793724,
                    1
                ],
                "metallicFactor" : 0,
                "roughnessFactor" : 0.781818151473999
            }
        },
        {
            "doubleSided" : true,
            "name" : "Material.008",
            "pbrMetallicRoughness" : {
                "baseColorTexture" : {
                    "index" : 0
                },
                "metallicFactor" : 0,
                "roughnessFactor" : 0.5
            }
        },
        {
            "doubleSided" : true,
            "name" : "Material.009",
            "pbrMetallicRoughness" : {
                "baseColorTexture" : {
                    "index" : 1
                },
                "metallicFactor" : 0,
                "roughnessFactor" : 0.5
            }
        }
    ],
    "meshes" : [
        {
            "name" : "server.001",
            "primitives" : [
                {
                    "attributes" : {
                        "POSITION" : 0,
                        "NORMAL" : 1,
                        "TEXCOORD_0" : 2,
                        "COLOR_0" : 3
                    },
                    "indices" : 4,
                    "material" : 0
                },
                {
                    "attributes" : {
                        "POSITION" : 5,
                        "NORMAL" : 6,
                        "TEXCOORD_0" : 7,
                        "COLOR_0" : 8
                    },
                    "indices" : 9,
                    "material" : 1
                },
                {
                    "attributes" : {
                        "POSITION" : 10,
                        "NORMAL" : 11,
                        "TEXCOORD_0" : 12,
                        "COLOR_0" : 13
                    },
                    "indices" : 14,
                    "material" : 2
                }
            ]
        }
    ],
    "textures" : [
        {
            "sampler" : 0,
            "source" : 0
        },
        {
            "sampler" : 0,
            "source" : 1
        }
    ],
    "images" : [
        {
            "bufferView" : 10,
            "mimeType" : "image/jpeg",
            "name" : "server front"
        },
        {
            "bufferView" : 16,
            "mimeType" : "image/jpeg",
            "name" : "Server_back side"
        }
    ],
    "accessors" : [
        {
            "bufferView" : 0,
            "componentType" : 5126,
            "count" : 39,
            "max" : [
                105.19286346435547,
                54.076805114746094,
                -2.3330092430114746
            ],
            "min" : [
                -100,
                -51.95293426513672,
                -208.3330078125
            ],
            "type" : "VEC3"
        },
        {
            "bufferView" : 1,
            "componentType" : 5126,
            "count" : 39,
            "type" : "VEC3"
        },
        {
            "bufferView" : 2,
            "componentType" : 5126,
            "count" : 39,
            "type" : "VEC2"
        },
        {
            "bufferView" : 3,
            "componentType" : 5123,
            "count" : 39,
            "normalized" : true,
            "type" : "VEC4"
        },
        {
            "bufferView" : 4,
            "componentType" : 5123,
            "count" : 144,
            "type" : "SCALAR"
        },
        {
            "bufferView" : 5,
            "componentType" : 5126,
            "count" : 4,
            "max" : [
                105.19286346435547,
                45.66006851196289,
                -8.625874519348145
            ],
            "min" : [
                105.19286346435547,
                -45.66006851196289,
                -196.04014587402344
            ],
            "type" : "VEC3"
        },
        {
            "bufferView" : 6,
            "componentType" : 5126,
            "count" : 4,
            "type" : "VEC3"
        },
        {
            "bufferView" : 7,
            "componentType" : 5126,
            "count" : 4,
            "type" : "VEC2"
        },
        {
            "bufferView" : 8,
            "componentType" : 5123,
            "count" : 4,
            "normalized" : true,
            "type" : "VEC4"
        },
        {
            "bufferView" : 9,
            "componentType" : 5123,
            "count" : 6,
            "type" : "SCALAR"
        },
        {
            "bufferView" : 11,
            "componentType" : 5126,
            "count" : 4,
            "max" : [
                -100,
                51.95293426513672,
                -2.3330092430114746
            ],
            "min" : [
                -100,
                -51.95293426513672,
                -202.3330078125
            ],
            "type" : "VEC3"
        },
        {
            "bufferView" : 12,
            "componentType" : 5126,
            "count" : 4,
            "type" : "VEC3"
        },
        {
            "bufferView" : 13,
            "componentType" : 5126,
            "count" : 4,
            "type" : "VEC2"
        },
        {
            "bufferView" : 14,
            "componentType" : 5123,
            "count" : 4,
            "normalized" : true,
            "type" : "VEC4"
        },
        {
            "bufferView" : 15,
            "componentType" : 5123,
            "count" : 6,
            "type" : "SCALAR"
        }
    ],
    "bufferViews" : [
        {
            "buffer" : 0,
            "byteLength" : 468,
            "byteOffset" : 0
        },
        {
            "buffer" : 0,
            "byteLength" : 468,
            "byteOffset" : 468
        },
        {
            "buffer" : 0,
            "byteLength" : 312,
            "byteOffset" : 936
        },
        {
            "buffer" : 0,
            "byteLength" : 312,
            "byteOffset" : 1248
        },
        {
            "buffer" : 0,
            "byteLength" : 288,
            "byteOffset" : 1560
        },
        {
            "buffer" : 0,
            "byteLength" : 48,
            "byteOffset" : 1848
        },
        {
            "buffer" : 0,
            "byteLength" : 48,
            "byteOffset" : 1896
        },
        {
            "buffer" : 0,
            "byteLength" : 32,
            "byteOffset" : 1944
        },
        {
            "buffer" : 0,
            "byteLength" : 32,
            "byteOffset" : 1976
        },
        {
            "buffer" : 0,
            "byteLength" : 12,
            "byteOffset" : 2008
        },
        {
            "buffer" : 0,
            "byteLength" : 36637,
            "byteOffset" : 2020
        },
        {
            "buffer" : 0,
            "byteLength" : 48,
            "byteOffset" : 38660
        },
        {
            "buffer" : 0,
            "byteLength" : 48,
            "byteOffset" : 38708
        },
        {
            "buffer" : 0,
            "byteLength" : 32,
            "byteOffset" : 38756
        },
        {
            "buffer" : 0,
            "byteLength" : 32,
            "byteOffset" : 38788
        },
        {
            "buffer" : 0,
            "byteLength" : 12,
            "byteOffset" : 38820
        },
        {
            "buffer" : 0,
            "byteLength" : 105277,
            "byteOffset" : 38832
        }
    ],
    "samplers" : [
        {
            "magFilter" : 9729,
            "minFilter" : 9987
        }
    ],
    "buffers" : [
        {
            "byteLength" : 144112,
            "uri" : "data:application/octet-stream;base64,"
        }
    ]
}
