{
    "asset" : {
        "generator" : "Khronos glTF Blender I/O v1.8.19",
        "version" : "2.0"
    },
    "scene" : 0,
    "scenes" : [
        {
            "extras" : {
                "blenderkitUI" : {
                    "assetbar_on" : 0,
                    "turn_off" : 0
                },
                "blenderkit_models" : {},
                "asset_manager" : {
                    "cat" : 2,
                    "subcat" : 1
                },
                "uuid" : "e1b3df96-ae7c-4292-85af-e7e9e4ffcac3",
                "assets reported" : {},
                "pmc_sceneprops" : {},
                "kitops" : {},
                "scatter_properties" : {}
            },
            "name" : "Scene",
            "nodes" : [
                1
            ]
        }
    ],
    "nodes" : [
        {
            "mesh" : 0,
            "name" : "Curve",
            "scale" : [
                12,
                1,
                12
            ],
            "translation" : [
                -0.8669111728668213,
                0.18983450531959534,
                0.8621652126312256
            ]
        },
        {
            "children" : [
                0
            ],
            "mesh" : 1,
            "name" : "Cylinder",
            "scale" : [
                0.37509843707084656,
                0.37509843707084656,
                0.37509843707084656
            ]
        }
    ],
    "materials" : [
        {
            "doubleSided" : true,
            "emissiveFactor" : [
                0.2109149992465973,
                0.04895995929837227,
                0.0005810175789520144
            ],
            "name" : "SVGMat",
            "pbrMetallicRoughness" : {
                "baseColorFactor" : [
                    1,
                    0.2746770977973938,
                    0,
                    1
                ]
            }
        },
        {
            "doubleSided" : true,
            "extras" : {
                "pmc_matprops" : {}
            },
            "name" : "Black Plastic.005",
            "pbrMetallicRoughness" : {
                "baseColorFactor" : [
                    0,
                    0,
                    0,
                    1
                ],
                "metallicFactor" : 0,
                "roughnessFactor" : 0.781818151473999
            }
        }
    ],
    "meshes" : [
        {
            "name" : "Curve",
            "primitives" : [
                {
                    "attributes" : {
                        "POSITION" : 0,
                        "NORMAL" : 1,
                        "TEXCOORD_0" : 2
                    },
                    "indices" : 3,
                    "material" : 0
                }
            ]
        },
        {
            "name" : "Cylinder",
            "primitives" : [
                {
                    "attributes" : {
                        "POSITION" : 4,
                        "NORMAL" : 5,
                        "TEXCOORD_0" : 6
                    },
                    "indices" : 7,
                    "material" : 1
                }
            ]
        }
    ],
    "accessors" : [
        {
            "bufferView" : 0,
            "componentType" : 5126,
            "count" : 764,
            "max" : [
                0.144500732421875,
                0,
                0
            ],
            "min" : [
                0,
                0,
                -0.14447021484375
            ],
            "type" : "VEC3"
        },
        {
            "bufferView" : 1,
            "componentType" : 5126,
            "count" : 764,
            "type" : "VEC3"
        },
        {
            "bufferView" : 2,
            "componentType" : 5126,
            "count" : 764,
            "type" : "VEC2"
        },
        {
            "bufferView" : 3,
            "componentType" : 5123,
            "count" : 1734,
            "type" : "SCALAR"
        },
        {
            "bufferView" : 4,
            "componentType" : 5126,
            "count" : 192,
            "max" : [
                0.9999999403953552,
                0.18265283107757568,
                1
            ],
            "min" : [
                -1.0000001192092896,
                -0.18265211582183838,
                -1
            ],
            "type" : "VEC3"
        },
        {
            "bufferView" : 5,
            "componentType" : 5126,
            "count" : 192,
            "type" : "VEC3"
        },
        {
            "bufferView" : 6,
            "componentType" : 5126,
            "count" : 192,
            "type" : "VEC2"
        },
        {
            "bufferView" : 7,
            "componentType" : 5123,
            "count" : 372,
            "type" : "SCALAR"
        }
    ],
    "bufferViews" : [
        {
            "buffer" : 0,
            "byteLength" : 9168,
            "byteOffset" : 0
        },
        {
            "buffer" : 0,
            "byteLength" : 9168,
            "byteOffset" : 9168
        },
        {
            "buffer" : 0,
            "byteLength" : 6112,
            "byteOffset" : 18336
        },
        {
            "buffer" : 0,
            "byteLength" : 3468,
            "byteOffset" : 24448
        },
        {
            "buffer" : 0,
            "byteLength" : 2304,
            "byteOffset" : 27916
        },
        {
            "buffer" : 0,
            "byteLength" : 2304,
            "byteOffset" : 30220
        },
        {
            "buffer" : 0,
            "byteLength" : 1536,
            "byteOffset" : 32524
        },
        {
            "buffer" : 0,
            "byteLength" : 744,
            "byteOffset" : 34060
        }
    ],
    "buffers" : [
        {
            "byteLength" : 34804,
            "uri" : "data:application/octet-stream;base64,"
        }
    ]
}
