{
    "asset" : {
        "generator" : "Khronos glTF Blender I/O v1.8.19",
        "version" : "2.0"
    },
    "scene" : 0,
    "scenes" : [
        {
            "extras" : {
                "blenderkitUI" : {
                    "assetbar_on" : 0,
                    "turn_off" : 0
                },
                "blenderkit_models" : {},
                "asset_manager" : {
                    "cat" : 2,
                    "subcat" : 1
                },
                "uuid" : "e1b3df96-ae7c-4292-85af-e7e9e4ffcac3",
                "assets reported" : {},
                "pmc_sceneprops" : {},
                "kitops" : {},
                "scatter_properties" : {}
            },
            "name" : "Scene",
            "nodes" : [
                1
            ]
        }
    ],
    "nodes" : [
        {
            "mesh" : 0,
            "name" : "server01.003",
            "rotation" : [
                0,
                0.7076228260993958,
                0,
                0.7065903544425964
            ],
            "scale" : [
                0.10414952039718628,
                0.10414952039718628,
                0.10414952039718628
            ],
            "translation" : [
                4.8066816329956055,
                0.2879817485809326,
                0.15919607877731323
            ]
        },
        {
            "children" : [
                0
            ],
            "name" : "Plane.001",
            "translation" : [
                -5.007452011108398,
                0,
                -0.15919607877731323
            ]
        }
    ],
    "materials" : [
        {
            "doubleSided" : true,
            "emissiveFactor" : [
                1,
                1,
                1
            ],
            "emissiveTexture" : {
                "index" : 0
            },
            "name" : "Material.001",
            "pbrMetallicRoughness" : {
                "baseColorTexture" : {
                    "index" : 1
                },
                "metallicFactor" : 0,
                "roughnessFactor" : 0.49824559688568115
            }
        }
    ],
    "meshes" : [
        {
            "name" : "Cube.024",
            "primitives" : [
                {
                    "attributes" : {
                        "POSITION" : 0,
                        "NORMAL" : 1,
                        "TEXCOORD_0" : 2
                    },
                    "indices" : 3,
                    "material" : 0
                }
            ]
        }
    ],
    "textures" : [
        {
            "sampler" : 0,
            "source" : 0
        },
        {
            "sampler" : 0,
            "source" : 1
        }
    ],
    "images" : [
        {
            "bufferView" : 4,
            "mimeType" : "image/png",
            "name" : "server_emission_blender"
        },
        {
            "bufferView" : 5,
            "mimeType" : "image/png",
            "name" : "server_stylized_diff"
        }
    ],
    "accessors" : [
        {
            "bufferView" : 0,
            "componentType" : 5126,
            "count" : 986,
            "max" : [
                1.5990926027297974,
                2.29075026512146,
                1.333108901977539
            ],
            "min" : [
                -1.689807653427124,
                -2.352551221847534,
                -1.3331060409545898
            ],
            "type" : "VEC3"
        },
        {
            "bufferView" : 1,
            "componentType" : 5126,
            "count" : 986,
            "type" : "VEC3"
        },
        {
            "bufferView" : 2,
            "componentType" : 5126,
            "count" : 986,
            "type" : "VEC2"
        },
        {
            "bufferView" : 3,
            "componentType" : 5123,
            "count" : 1572,
            "type" : "SCALAR"
        }
    ],
    "bufferViews" : [
        {
            "buffer" : 0,
            "byteLength" : 11832,
            "byteOffset" : 0
        },
        {
            "buffer" : 0,
            "byteLength" : 11832,
            "byteOffset" : 11832
        },
        {
            "buffer" : 0,
            "byteLength" : 7888,
            "byteOffset" : 23664
        },
        {
            "buffer" : 0,
            "byteLength" : 3144,
            "byteOffset" : 31552
        },
        {
            "buffer" : 0,
            "byteLength" : 5834,
            "byteOffset" : 34696
        },
        {
            "buffer" : 0,
            "byteLength" : 14420,
            "byteOffset" : 40532
        }
    ],
    "samplers" : [
        {
            "magFilter" : 9729,
            "minFilter" : 9987
        }
    ],
    "buffers" : [
        {
            "byteLength" : 54952,
            "uri" : "data:application/octet-stream;base64,"
        }
    ]
}
